<?xml version="1.0" encoding="UTF-8"?>
<svg id="_レイヤー_1" data-name="レイヤー 1" xmlns="http://www.w3.org/2000/svg" viewBox="0 0 541.62 784.94">
  <defs>
    <style>
      .cls-1 {
        fill: #fff;
      }

      .cls-2 {
        fill: #494949;
      }
    </style>
  </defs>
  <path class="cls-2" d="M488.74,26.94H52.89C23.68,26.94,0,50.61,0,79.82v652.24c0,29.2,23.68,52.88,52.89,52.88h435.85c29.21,0,52.88-23.68,52.88-52.88V79.82c0-29.21-23.67-52.88-52.88-52.88ZM97.52,130.24c0-7.89,3.2-15.04,8.37-20.2,5.16-5.18,12.32-8.37,20.2-8.37s15.04,3.2,20.2,8.37c5.18,5.16,8.37,12.32,8.37,20.2s-3.2,15.04-8.37,20.2c-5.16,5.18-12.32,8.37-20.2,8.37-15.78,0-28.57-12.79-28.57-28.57ZM242.23,130.24c0-7.89,3.2-15.04,8.37-20.2,5.16-5.18,12.32-8.37,20.2-8.37s15.04,3.2,20.2,8.37c5.18,5.16,8.37,12.32,8.37,20.2s-3.2,15.04-8.37,20.2c-5.16,5.18-12.32,8.37-20.2,8.37-15.78,0-28.57-12.79-28.57-28.57ZM386.22,130.24c0-7.89,3.2-15.04,8.37-20.2,5.18-5.18,12.32-8.37,20.21-8.37s15.03,3.2,20.2,8.37c5.18,5.16,8.37,12.32,8.37,20.2s-3.2,15.04-8.37,20.2c-5.18,5.18-12.32,8.37-20.2,8.37-15.78,0-28.59-12.79-28.59-28.57Z"/>
  <path class="cls-1" d="M479.51,53.95H62.11c-19.73,0-35.72,15.99-35.72,35.72v631.17c0,19.73,15.99,35.72,35.72,35.72h417.41c19.73,0,35.73-15.99,35.73-35.72V89.67c0-19.73-16-35.72-35.73-35.72ZM435.01,150.44c-5.18,5.18-12.32,8.37-20.2,8.37-15.78,0-28.59-12.79-28.59-28.57,0-7.89,3.2-15.04,8.37-20.2,5.18-5.18,12.32-8.37,20.21-8.37s15.03,3.2,20.2,8.37c5.18,5.16,8.37,12.32,8.37,20.2s-3.2,15.04-8.37,20.2ZM291.01,150.44c-5.16,5.18-12.32,8.37-20.2,8.37-15.78,0-28.57-12.79-28.57-28.57,0-7.89,3.2-15.04,8.37-20.2,5.16-5.18,12.32-8.37,20.2-8.37s15.04,3.2,20.2,8.37c5.18,5.16,8.37,12.32,8.37,20.2s-3.2,15.04-8.37,20.2ZM146.29,150.44c-5.16,5.18-12.32,8.37-20.2,8.37-15.78,0-28.57-12.79-28.57-28.57,0-7.89,3.2-15.04,8.37-20.2,5.16-5.18,12.32-8.37,20.2-8.37s15.04,3.2,20.2,8.37c5.18,5.16,8.37,12.32,8.37,20.2s-3.2,15.04-8.37,20.2Z"/>
  <path class="cls-2" d="M159.68,98.13c-8.41-8.41-20.03-13.61-32.86-13.61s-24.44,5.2-32.85,13.61c-8.41,8.41-13.61,20.02-13.61,32.85,0,25.67,20.8,46.47,46.46,46.47,12.83,0,24.45-5.2,32.86-13.61s13.61-20.02,13.61-32.86-5.2-24.44-13.61-32.85ZM146.29,150.44c-5.16,5.18-12.32,8.37-20.2,8.37-15.78,0-28.57-12.79-28.57-28.57,0-7.89,3.2-15.04,8.37-20.2,5.16-5.18,12.32-8.37,20.2-8.37s15.04,3.2,20.2,8.37c5.18,5.16,8.37,12.32,8.37,20.2s-3.2,15.04-8.37,20.2Z"/>
  <path class="cls-2" d="M303.67,98.13c-8.41-8.41-20.02-13.61-32.86-13.61s-24.44,5.2-32.85,13.61c-8.41,8.41-13.61,20.02-13.61,32.85,0,25.67,20.8,46.47,46.46,46.47,12.84,0,24.45-5.2,32.86-13.61,8.41-8.41,13.61-20.02,13.61-32.86s-5.2-24.44-13.61-32.85ZM291.01,150.44c-5.16,5.18-12.32,8.37-20.2,8.37-15.78,0-28.57-12.79-28.57-28.57,0-7.89,3.2-15.04,8.37-20.2,5.16-5.18,12.32-8.37,20.2-8.37s15.04,3.2,20.2,8.37c5.18,5.16,8.37,12.32,8.37,20.2s-3.2,15.04-8.37,20.2Z"/>
  <path class="cls-2" d="M447.65,98.13c-8.4-8.41-20.02-13.61-32.85-13.61s-24.45,5.2-32.86,13.61c-8.41,8.41-13.61,20.02-13.61,32.85,0,25.67,20.8,46.47,46.47,46.47,12.83,0,24.45-5.2,32.85-13.61,8.41-8.41,13.61-20.02,13.61-32.86s-5.2-24.44-13.61-32.85ZM435.01,150.44c-5.18,5.18-12.32,8.37-20.2,8.37-15.78,0-28.59-12.79-28.59-28.57,0-7.89,3.2-15.04,8.37-20.2,5.18-5.18,12.32-8.37,20.21-8.37s15.03,3.2,20.2,8.37c5.18,5.16,8.37,12.32,8.37,20.2s-3.2,15.04-8.37,20.2Z"/>
  <rect class="cls-2" x="111.7" y="0" width="28.54" height="144.7" rx="11.69" ry="11.69"/>
  <rect class="cls-2" x="256.54" y="0" width="28.54" height="144.7" rx="11.69" ry="11.69"/>
  <rect class="cls-2" x="400.53" y="0" width="28.54" height="144.7" rx="11.69" ry="11.69"/>
</svg>