<?xml version="1.0" encoding="UTF-8"?>
<svg id="_レイヤー_1" data-name="レイヤー 1" xmlns="http://www.w3.org/2000/svg" viewBox="0 0 442.49 620.52">
  <defs>
    <style>
      .cls-1 {
        fill: #fff;
      }

      .cls-2 {
        fill: #494949;
      }
    </style>
  </defs>
  <path class="cls-2" d="M399.84,620.52H42.65c-23.56,0-42.65-19.1-42.65-42.65V42.65C0,19.1,19.1,0,42.65,0h357.19c23.56,0,42.65,19.1,42.65,42.65v535.21c0,23.56-19.1,42.65-42.65,42.65ZM125.96,83.93h0c0-12.67-10.27-22.94-22.94-22.94h0c-12.67,0-22.94,10.27-22.94,22.94h0c0,12.67,10.27,22.94,22.94,22.94h0c12.67,0,22.94-10.27,22.94-22.94ZM244.33,83.93h0c0-12.67-10.27-22.94-22.94-22.94h0c-12.67,0-22.94,10.27-22.94,22.94h0c0,12.67,10.27,22.94,22.94,22.94h0c12.67,0,22.94-10.27,22.94-22.94ZM362.7,83.93h0c0-12.67-10.27-22.94-22.94-22.94h0c-12.67,0-22.94,10.27-22.94,22.94h0c0,12.67,10.27,22.94,22.94,22.94h0c12.67,0,22.94-10.27,22.94-22.94Z"/>
  <path class="cls-1" d="M392.32,597.32H50.46c-15.78,0-28.58-12.8-28.58-28.58V50.32c0-15.78,12.8-28.58,28.58-28.58h341.86c15.78,0,28.58,12.8,28.58,28.58v518.43c0,15.78-12.8,28.58-28.58,28.58ZM125.96,83.93h0c0-12.67-10.27-22.94-22.94-22.94h0c-12.67,0-22.94,10.27-22.94,22.94h0c0,12.67,10.27,22.94,22.94,22.94h0c12.67,0,22.94-10.27,22.94-22.94ZM244.33,83.93h0c0-12.67-10.27-22.94-22.94-22.94h0c-12.67,0-22.94,10.27-22.94,22.94h0c0,12.67,10.27,22.94,22.94,22.94h0c12.67,0,22.94-10.27,22.94-22.94ZM362.7,83.93h0c0-12.67-10.27-22.94-22.94-22.94h0c-12.67,0-22.94,10.27-22.94,22.94h0c0,12.67,10.27,22.94,22.94,22.94h0c12.67,0,22.94-10.27,22.94-22.94Z"/>
  <path class="cls-2" d="M103.04,121.76h0c-20.91,0-37.86-16.95-37.86-37.86h0c0-20.91,16.95-37.86,37.86-37.86h0c20.91,0,37.86,16.95,37.86,37.86h0c0,20.91-16.95,37.86-37.86,37.86ZM125.96,83.93h0c0-12.67-10.27-22.94-22.94-22.94h0c-12.67,0-22.94,10.27-22.94,22.94h0c0,12.67,10.27,22.94,22.94,22.94h0c12.67,0,22.94-10.27,22.94-22.94Z"/>
  <path class="cls-2" d="M221.39,121.78h0c-20.91,0-37.86-16.95-37.86-37.86h0c0-20.91,16.95-37.86,37.86-37.86h0c20.91,0,37.86,16.95,37.86,37.86h0c0,20.91-16.95,37.86-37.86,37.86ZM244.33,83.93h0c0-12.67-10.27-22.94-22.94-22.94h0c-12.67,0-22.94,10.27-22.94,22.94h0c0,12.67,10.27,22.94,22.94,22.94h0c12.67,0,22.94-10.27,22.94-22.94Z"/>
  <path class="cls-2" d="M339.74,121.78h0c-20.91,0-37.86-16.95-37.86-37.86h0c0-20.91,16.95-37.86,37.86-37.86h0c20.91,0,37.86,16.95,37.86,37.86h0c0,20.91-16.95,37.86-37.86,37.86ZM362.7,83.93h0c0-12.67-10.27-22.94-22.94-22.94h0c-12.67,0-22.94,10.27-22.94,22.94h0c0,12.67,10.27,22.94,22.94,22.94h0c12.67,0,22.94-10.27,22.94-22.94Z"/>
</svg>